<svg version="1.1" width="24.000000" height="24.000000" viewBox="0.000000 0.000000 24.000000 24.000000" xmlns="http://www.w3.org/2000/svg" xmlns:xlink="http://www.w3.org/1999/xlink" overflow="hidden"><path d=" M 14.000000 19.000000 L 10.000000 19.000000 C 9.724000 19.000000 9.500000 19.224001 9.500000 19.500000 C 9.500000 19.775999 9.724000 20.000000 10.000000 20.000000 L 14.000000 20.000000 C 14.276000 20.000000 14.500000 19.775999 14.500000 19.500000 C 14.500000 19.224001 14.276000 19.000000 14.000000 19.000000 Z M 14.000000 21.000000 L 10.000000 21.000000 C 9.724000 21.000000 9.500000 21.224001 9.500000 21.500000 C 9.500000 21.775999 9.724000 22.000000 10.000000 22.000000 L 14.000000 22.000000 C 14.276000 22.000000 14.500000 21.775999 14.500000 21.500000 C 14.500000 21.224001 14.276000 21.000000 14.000000 21.000000 Z M 14.250000 23.000000 L 9.750000 23.000000 L 10.938000 23.782000 C 11.092000 23.920000 11.318000 24.000000 11.553000 24.000000 L 12.448000 24.000000 C 12.682000 24.000000 12.909000 23.920000 13.063000 23.782000 L 14.250000 23.000000 Z M 18.000000 9.201000 C 18.000000 12.770000 14.786000 15.184000 14.786000 18.000000 L 12.797000 18.000000 C 12.794000 16.142000 13.667000 14.611000 14.518000 13.133000 C 15.279000 11.808000 16.000000 10.556000 16.000000 9.201000 C 16.000000 6.609000 13.925000 5.429000 11.997000 5.429000 C 10.072000 5.429000 8.000000 6.609000 8.000000 9.201000 C 8.000000 10.556000 8.721000 11.808000 9.482000 13.133000 C 10.333000 14.611000 11.207000 16.142000 11.202000 18.000000 L 9.214000 18.000000 C 9.214000 15.184000 6.000000 12.770000 6.000000 9.201000 C 6.000000 5.478000 8.998000 3.429000 11.997000 3.429000 C 14.998000 3.429000 18.000000 5.480000 18.000000 9.201000 Z M 22.000000 8.510000 L 22.000000 9.882000 L 19.462000 9.882000 C 19.482000 9.659000 19.500000 9.434000 19.500000 9.201000 C 19.500000 8.964000 19.483000 8.737000 19.465000 8.511000 L 22.000000 8.511000 Z M 11.352000 1.957000 L 11.352000 -0.000000 L 12.723000 -0.000000 L 12.723000 1.964000 C 12.481000 1.942000 12.239000 1.929000 11.997000 1.929000 C 11.782000 1.929000 11.567000 1.939000 11.352000 1.957000 Z M 7.609000 3.251000 L 6.569000 1.311000 L 7.777000 0.663000 L 8.814000 2.596000 C 8.396000 2.777000 7.992000 2.997000 7.609000 3.251000 Z M 18.195000 4.986000 L 20.136999 3.592000 L 20.936001 4.707000 L 18.882000 6.180000 C 18.691000 5.750000 18.459000 5.353000 18.195000 4.986000 Z M 15.185000 2.597000 L 16.223000 0.663000 L 17.431000 1.311000 L 16.389999 3.252000 C 16.007999 2.998000 15.604000 2.779000 15.185000 2.597000 Z M 5.117000 6.180000 L 3.063000 4.708000 L 3.862000 3.593000 L 5.804000 4.986000 C 5.540000 5.352000 5.309000 5.749000 5.117000 6.180000 Z M 18.823999 12.403000 L 21.177999 13.357000 L 20.664000 14.628000 L 18.239000 13.646000 C 18.448999 13.249000 18.646999 12.834000 18.823999 12.403000 Z M 5.716000 13.558000 L 3.360000 14.618000 L 2.798000 13.367000 L 5.138000 12.315000 C 5.311000 12.748000 5.509000 13.160000 5.716000 13.558000 Z M 4.538000 9.882000 L 2.000000 9.882000 L 2.000000 8.510000 L 4.535000 8.510000 C 4.517000 8.736000 4.500000 8.964000 4.500000 9.201000 C 4.500000 9.434000 4.518000 9.659000 4.538000 9.882000 Z" stroke="none" stroke-width="1.000000" stroke-linecap="butt" fill="#2E75B6" fill-opacity="1.000000"/></svg>