<svg version="1.1" width="682.666667" height="682.666667" viewBox="0.000000 -22.000000 512.001360 512.000000" xmlns="http://www.w3.org/2000/svg" xmlns:xlink="http://www.w3.org/1999/xlink" overflow="hidden"><path d=" M 452.660156 365.742188 C 455.148438 356.457031 453.871094 346.753906 449.062500 338.425781 L 427.062500 300.320312 C 421.960938 291.480469 413.644531 285.632812 404.433594 283.378906 C 404.507812 283.121094 404.589844 282.867188 404.660156 282.605469 C 407.148438 273.316406 405.871094 263.617188 401.062500 255.289062 L 379.062500 217.183594 C 376.238281 212.285156 372.421875 208.308594 368.019531 205.347656 C 368.179688 205.191406 368.343750 205.046875 368.500000 204.890625 C 376.000000 197.394531 385.968750 193.261719 396.570312 193.261719 C 407.175781 193.261719 417.144531 197.394531 424.644531 204.890625 C 436.281250 216.527344 451.570312 222.347656 466.859375 222.347656 C 482.144531 222.347656 497.433594 216.527344 509.070312 204.890625 C 512.976562 200.984375 512.976562 194.652344 509.070312 190.750000 C 505.167969 186.843750 498.835938 186.843750 494.929688 190.750000 C 479.449219 206.226562 454.265625 206.226562 438.785156 190.750000 C 427.511719 179.472656 412.515625 173.261719 396.570312 173.261719 C 382.195312 173.261719 368.605469 178.324219 357.804688 187.578125 C 357.425781 182.207031 355.835938 176.949219 353.062500 172.152344 L 331.062500 134.046875 C 325.957031 125.199219 317.632812 119.351562 308.414062 117.097656 C 311.074219 107.992188 310.167969 97.859375 305.062500 89.011719 C 293.519531 69.019531 274.890625 54.695312 252.605469 48.675781 L 227.105469 41.789062 C 226.808594 40.015625 226.207031 38.285156 225.281250 36.679688 L 208.496094 7.605469 C 204.300781 0.339844 194.980469 -2.160156 187.714844 2.035156 L 187.710938 2.035156 L 141.316406 28.824219 C 134.050781 33.019531 131.554688 42.339844 135.750000 49.605469 L 152.535156 78.679688 C 153.476562 80.308594 154.675781 81.687500 156.050781 82.816406 L 149.261719 108.343750 C 143.332031 130.652344 146.425781 153.949219 157.964844 173.941406 C 163.074219 182.785156 171.398438 188.632812 180.613281 190.882812 C 179.582031 194.417969 179.082031 198.101562 179.160156 201.808594 C 171.277344 200.500000 163.710938 196.820312 157.640625 190.750000 C 134.363281 167.472656 96.492188 167.476562 73.214844 190.750000 C 65.714844 198.250000 55.746094 202.378906 45.144531 202.378906 C 34.539062 202.378906 24.570312 198.250000 17.070312 190.750000 C 13.164062 186.843750 6.835938 186.843750 2.929688 190.750000 C -0.976562 194.656250 -0.976562 200.988281 2.929688 204.890625 C 26.207031 228.167969 64.082031 228.167969 87.359375 204.890625 C 94.855469 197.394531 104.824219 193.265625 115.429688 193.265625 C 126.031250 193.265625 136.000000 197.394531 143.500000 204.890625 C 155.187500 216.582031 170.558594 222.394531 185.910156 222.343750 L 205.964844 257.078125 C 210.773438 265.406250 218.535156 271.363281 227.824219 273.851562 C 228.085938 273.921875 228.347656 273.968750 228.609375 274.035156 C 225.953125 283.140625 226.859375 293.269531 231.964844 302.109375 L 253.964844 340.214844 C 259.070312 349.062500 267.394531 354.906250 276.609375 357.156250 C 273.953125 366.265625 274.855469 376.402344 279.964844 385.246094 L 301.964844 423.351562 C 308.625000 434.886719 320.750000 441.343750 333.199219 441.343750 C 339.304688 441.343750 345.484375 439.792969 351.140625 436.531250 L 435.882812 387.601562 C 444.214844 382.796875 450.171875 375.035156 452.660156 365.742188 Z M 313.742188 144.046875 L 335.742188 182.148438 C 337.882812 185.851562 338.449219 190.164062 337.343750 194.292969 C 336.558594 197.214844 334.988281 199.789062 332.832031 201.808594 C 320.609375 203.832031 307.621094 200.156250 298.214844 190.750000 C 286.941406 179.472656 271.945312 173.261719 256.000000 173.261719 C 240.054688 173.261719 225.062500 179.472656 213.789062 190.750000 C 209.519531 195.011719 204.515625 198.097656 199.183594 200.011719 C 199.503906 194.832031 202.320312 189.898438 207.144531 187.113281 L 291.886719 138.187500 C 299.527344 133.777344 309.335938 136.406250 313.742188 144.046875 Z M 193.570312 21.750000 L 205.566406 42.535156 L 167.464844 64.535156 L 155.464844 43.750000 Z M 175.289062 163.937500 C 166.410156 148.562500 164.031250 130.640625 168.593750 113.480469 L 176.914062 82.171875 L 216.117188 59.539062 L 247.390625 67.984375 C 264.535156 72.617188 278.863281 83.632812 287.742188 99.011719 C 289.878906 102.714844 290.445312 107.023438 289.343750 111.152344 C 288.234375 115.277344 285.589844 118.726562 281.890625 120.863281 C 281.890625 120.867188 281.890625 120.867188 281.886719 120.867188 L 197.144531 169.796875 C 189.503906 174.207031 179.699219 171.578125 175.289062 163.937500 Z M 223.289062 247.078125 L 206.792969 218.511719 C 214.503906 215.613281 221.734375 211.085938 227.929688 204.890625 C 235.429688 197.394531 245.398438 193.261719 256.000000 193.261719 C 266.605469 193.261719 276.574219 197.394531 284.070312 204.890625 C 290.195312 211.011719 297.332031 215.507812 304.941406 218.410156 L 245.144531 252.933594 C 241.441406 255.070312 237.128906 255.640625 233.003906 254.531250 C 228.875000 253.425781 225.425781 250.777344 223.289062 247.078125 Z M 271.289062 330.214844 L 249.289062 292.109375 C 244.875000 284.468750 247.503906 274.664062 255.144531 270.253906 L 339.886719 221.328125 C 339.886719 221.328125 339.890625 221.324219 339.890625 221.324219 C 340.800781 220.800781 341.742188 220.382812 342.703125 220.050781 C 343.054688 219.953125 343.406250 219.851562 343.757812 219.742188 C 350.578125 217.921875 358.050781 220.785156 361.742188 227.183594 L 383.742188 265.289062 C 385.882812 268.988281 386.449219 273.300781 385.343750 277.429688 C 384.238281 281.558594 381.589844 285.007812 377.886719 287.144531 L 293.144531 336.074219 C 285.503906 340.484375 275.699219 337.855469 271.289062 330.214844 Z M 433.343750 360.566406 C 432.238281 364.695312 429.589844 368.148438 425.886719 370.285156 L 341.144531 419.210938 C 333.503906 423.621094 323.699219 420.996094 319.289062 413.355469 L 297.289062 375.250000 C 292.878906 367.609375 295.503906 357.804688 303.144531 353.394531 L 387.886719 304.468750 C 395.531250 300.054688 405.332031 302.683594 409.742188 310.324219 L 431.742188 348.429688 C 433.882812 352.128906 434.449219 356.441406 433.343750 360.566406 Z" stroke="none" stroke-width="1.000000" stroke-linecap="butt" fill="#2E75B6" fill-opacity="1.000000"/><path d=" M 79.789062 392.082031 C 64.398438 393.304688 52.867188 406.820312 54.089844 422.210938 C 54.679688 429.664062 58.140625 436.445312 63.828125 441.296875 C 68.941406 445.660156 75.308594 448.000000 81.957031 448.000000 C 82.703125 448.000000 83.457031 447.968750 84.214844 447.910156 C 91.671875 447.316406 98.449219 443.859375 103.304688 438.167969 C 108.156250 432.480469 110.503906 425.238281 109.914062 417.785156 C 108.695312 402.394531 95.191406 390.851562 79.789062 392.082031 Z M 88.085938 425.191406 C 86.699219 426.816406 84.765625 427.800781 82.632812 427.972656 C 80.511719 428.144531 78.437500 427.468750 76.808594 426.082031 C 75.183594 424.695312 74.195312 422.757812 74.027344 420.628906 C 73.859375 418.500000 74.531250 416.429688 75.917969 414.804688 C 77.304688 413.179688 79.238281 412.191406 81.371094 412.023438 C 81.585938 412.003906 81.800781 411.996094 82.015625 411.996094 C 83.914062 411.996094 85.734375 412.664062 87.195312 413.910156 C 88.820312 415.296875 89.808594 417.234375 89.976562 419.363281 L 89.976562 419.367188 C 90.144531 421.496094 89.472656 423.562500 88.085938 425.191406 Z" stroke="none" stroke-width="1.000000" stroke-linecap="butt" fill="#2E75B6" fill-opacity="1.000000"/><path d=" M 155.914062 276.488281 C 155.324219 269.031250 151.863281 262.250000 146.171875 257.398438 C 140.484375 252.542969 133.246094 250.195312 125.789062 250.789062 C 118.332031 251.378906 111.554688 254.839844 106.699219 260.527344 C 101.843750 266.218750 99.496094 273.457031 100.089844 280.914062 C 100.679688 288.367188 104.140625 295.148438 109.828125 300.000000 C 114.941406 304.363281 121.308594 306.703125 127.953125 306.703125 C 128.703125 306.703125 129.457031 306.671875 130.214844 306.613281 C 137.671875 306.019531 144.449219 302.562500 149.304688 296.871094 C 154.156250 291.183594 156.503906 283.941406 155.914062 276.488281 Z M 134.085938 283.890625 C 132.699219 285.515625 130.765625 286.503906 128.632812 286.675781 C 126.503906 286.843750 124.433594 286.171875 122.808594 284.785156 C 121.183594 283.398438 120.195312 281.460938 120.027344 279.332031 C 119.859375 277.199219 120.531250 275.132812 121.917969 273.507812 C 123.304688 271.882812 125.238281 270.894531 127.371094 270.726562 C 127.585938 270.707031 127.800781 270.699219 128.015625 270.699219 C 129.914062 270.699219 131.734375 271.367188 133.195312 272.613281 C 134.820312 274.000000 135.808594 275.937500 135.976562 278.066406 C 136.144531 280.199219 135.472656 282.265625 134.085938 283.890625 Z" stroke="none" stroke-width="1.000000" stroke-linecap="butt" fill="#2E75B6" fill-opacity="1.000000"/><path d=" M 502.171875 271.015625 C 496.480469 266.160156 489.238281 263.820312 481.785156 264.406250 C 474.332031 264.996094 467.550781 268.457031 462.699219 274.144531 C 457.843750 279.835938 455.496094 287.074219 456.085938 294.531250 C 456.679688 301.988281 460.136719 308.765625 465.828125 313.621094 C 470.941406 317.980469 477.304688 320.320312 483.953125 320.320312 C 484.703125 320.320312 485.457031 320.289062 486.210938 320.230469 C 493.667969 319.640625 500.449219 316.179688 505.300781 310.488281 C 510.156250 304.800781 512.503906 297.562500 511.910156 290.105469 C 511.320312 282.648438 507.863281 275.867188 502.171875 271.015625 Z M 490.085938 297.511719 C 488.699219 299.136719 486.761719 300.121094 484.632812 300.292969 C 482.507812 300.464844 480.433594 299.789062 478.808594 298.402344 C 477.183594 297.015625 476.195312 295.078125 476.027344 292.949219 C 475.855469 290.820312 476.527344 288.750000 477.914062 287.125000 C 479.300781 285.500000 481.238281 284.511719 483.367188 284.343750 C 483.585938 284.324219 483.800781 284.316406 484.015625 284.316406 C 485.914062 284.316406 487.734375 284.984375 489.195312 286.230469 C 490.820312 287.617188 491.808594 289.554688 491.976562 291.683594 L 491.976562 291.687500 C 492.144531 293.816406 491.472656 295.882812 490.085938 297.511719 Z" stroke="none" stroke-width="1.000000" stroke-linecap="butt" fill="#2E75B6" fill-opacity="1.000000"/><path d=" M 180.515625 352.882812 L 163.667969 352.882812 C 158.144531 352.882812 153.667969 357.363281 153.667969 362.882812 C 153.667969 368.406250 158.144531 372.882812 163.667969 372.882812 L 180.515625 372.882812 C 186.039062 372.882812 190.515625 368.406250 190.515625 362.882812 C 190.515625 357.363281 186.039062 352.882812 180.515625 352.882812 Z" stroke="none" stroke-width="1.000000" stroke-linecap="butt" fill="#2E75B6" fill-opacity="1.000000"/><path d=" M 458.832031 445.640625 L 433.882812 445.640625 C 428.359375 445.640625 423.882812 450.117188 423.882812 455.640625 C 423.882812 461.164062 428.359375 465.640625 433.882812 465.640625 L 458.832031 465.640625 C 464.355469 465.640625 468.832031 461.164062 468.832031 455.640625 C 468.832031 450.117188 464.355469 445.640625 458.832031 445.640625 Z" stroke="none" stroke-width="1.000000" stroke-linecap="butt" fill="#2E75B6" fill-opacity="1.000000"/><path d=" M 393.882812 445.644531 C 391.250000 445.644531 388.671875 446.707031 386.812500 448.566406 C 384.953125 450.425781 383.882812 453.003906 383.882812 455.644531 C 383.882812 458.277344 384.949219 460.843750 386.812500 462.714844 C 388.671875 464.574219 391.250000 465.644531 393.882812 465.644531 C 396.511719 465.644531 399.089844 464.574219 400.949219 462.714844 C 402.808594 460.843750 403.882812 458.277344 403.882812 455.644531 C 403.882812 453.003906 402.812500 450.425781 400.949219 448.566406 C 399.089844 446.703125 396.511719 445.644531 393.882812 445.644531 Z" stroke="none" stroke-width="1.000000" stroke-linecap="butt" fill="#2E75B6" fill-opacity="1.000000"/><path d=" M 220.925781 448.398438 L 202.269531 448.398438 C 196.750000 448.398438 192.269531 452.878906 192.269531 458.398438 C 192.269531 463.921875 196.750000 468.398438 202.269531 468.398438 L 220.925781 468.398438 C 226.445312 468.398438 230.925781 463.921875 230.925781 458.398438 C 230.925781 452.878906 226.449219 448.398438 220.925781 448.398438 Z" stroke="none" stroke-width="1.000000" stroke-linecap="butt" fill="#2E75B6" fill-opacity="1.000000"/><path d=" M 68.332031 327.660156 C 68.332031 322.140625 63.855469 317.660156 58.332031 317.660156 L 45.546875 317.660156 C 40.027344 317.660156 35.546875 322.140625 35.546875 327.660156 C 35.546875 333.183594 40.027344 337.660156 45.546875 337.660156 L 58.332031 337.660156 C 63.855469 337.660156 68.332031 333.183594 68.332031 327.660156 Z" stroke="none" stroke-width="1.000000" stroke-linecap="butt" fill="#2E75B6" fill-opacity="1.000000"/></svg>