<svg version="1.1" width="612.000000" height="612.000000" viewBox="0.000000 0.000000 612.000000 612.000000" xmlns="http://www.w3.org/2000/svg" xmlns:xlink="http://www.w3.org/1999/xlink" id="Capa_1" overflow="hidden"><g><path d=" M 3.180000 201.694000 L 41.490002 231.626999 L 5.433000 300.700012 C -12.595000 332.550995 18.375999 363.578003 38.109001 374.378998 C 57.535000 385.010986 87.685997 386.274994 115.855003 385.891998 L 166.559006 303.002991 L 204.869003 323.725006 L 138.389999 200.544006 L 3.180000 201.694000 Z M 8.813000 370.779999 L 91.066002 522.742004 C 107.592003 543.846985 138.766006 548.835999 171.065994 548.068970 L 257.825989 548.068970 L 257.825989 404.165985 L 93.320000 403.015015 C 67.780998 404.548004 34.353001 399.175995 8.813000 370.779999 Z M 526.309021 90.732002 L 481.557007 109.726997 L 438.623993 44.705002 C 419.507996 13.496000 377.354004 25.541000 358.342010 37.563999 C 339.626007 49.400002 323.902008 75.157997 310.580994 99.981003 L 358.494995 184.513000 L 321.798004 207.973007 L 461.764008 209.548996 L 526.309021 90.732002 Z M 375.691986 13.686000 L 202.906006 11.954000 C 176.434998 16.174999 156.957993 41.021000 141.970001 69.644997 L 99.907997 145.526993 L 225.768997 215.292999 L 306.529999 71.970001 C 317.569000 48.887001 338.473999 22.256001 375.691986 13.686000 Z M 383.208008 600.046021 L 388.290009 551.695007 L 465.975006 545.669983 C 502.537994 544.080017 512.440002 501.372986 511.141998 478.915009 C 509.864990 456.807007 494.958008 430.566986 479.704987 406.881989 L 382.542999 407.807007 L 379.813995 364.337006 L 310.579010 485.989990 L 383.208008 600.046021 Z M 523.614990 505.666992 L 608.898010 355.385986 C 618.039978 330.187012 605.752014 301.105988 587.982971 274.119995 L 542.007019 200.542999 L 419.970001 276.799988 L 506.169006 416.920013 C 521.005981 437.765015 534.163025 468.959015 523.614990 505.666992 Z" stroke="none" stroke-width="1.000000" stroke-linecap="butt" fill="#2E75B6" fill-opacity="1.000000"/></g><g></g><g></g><g></g><g></g><g></g><g></g><g></g><g></g><g></g><g></g><g></g><g></g><g></g><g></g><g></g></svg>